#!OML:ASF F:\VICON\USERDATA\INSTALL\rory3\rory3.ASF
:FULLY-SPECIFIED
:DEGREES
64
root 0.34761 18.0312 -16.0512 -1.6919 0.940238 -1.97339
lowerback 9.81138 -1.29663 -0.362987
upperback 0.212345 -1.61114 2.87468
thorax -5.19193 -0.751219 3.43875
lowerneck -15.9968 -2.65804 -1.95692
upperneck 23.7701 -3.01035 -0.818667
head 10.2535 -1.66503 -0.36589
rclavicle 2.95692e-015 3.10104e-014
rhumerus -37.1563 -27.8866 -69.0344
rradius 18.5664
rwrist 13.3794
rhand -15.417 20.8698
rfingers 7.12502
rthumb 10.7625 -8.8345
lclavicle 2.95692e-015 3.10104e-014
lhumerus -27.8138 -1.89128 84.6524
lradius 31.6778
lwrist 10.0138
lhand -27.0999 27.3133
lfingers 7.12502
lthumb -0.516569 57.2924
rfemur -23.253 3.30499 25.5514
rtibia 28.2062
rfoot -4.56589 -3.7477
rtoes 11.3663
lfemur 5.17163 -3.21612 -20.4417
ltibia 46.198
lfoot 11.9783 -13.907
ltoes -15.4056
65
root 0.333807 18.0601 -15.8672 -1.6811 0.668244 -2.66417
lowerback 9.80453 -1.18282 0.420849
upperback 0.263421 -1.36631 2.98426
thorax -5.16524 -0.648792 3.07502
lowerneck -16.3144 -2.7582 -1.77193
upperneck 23.9274 -3.15248 -0.978659
head 10.3654 -1.73227 -0.479628
rclavicle 1.82385e-014 -1.78906e-014
rhumerus -36.6375 -27.2299 -69.6893
rradius 18.9911
rwrist 12.3673
rhand -15.649 20.4962
rfingers 7.12502
rthumb 10.5387 -9.21954
lclavicle 1.82385e-014 -1.78906e-014
lhumerus -27.8476 -2.06731 84.7979
lradius 31.4126
lwrist 9.75227
lhand -26.9195 29.1792
lfingers 7.12502
lthumb -0.342325 59.1586
rfemur -22.4402 3.48854 26.4589
rtibia 27.934
rfoot -4.76396 -3.73148
rtoes 11.2791
lfemur 3.74612 -2.87578 -19.4793
ltibia 48.7455
lfoot 14.0244 -15.0452
ltoes -9.88739
66
root 0.31721 18.087 -15.6889 -1.65772 0.446962 -2.91034
lowerback 9.90347 -1.11298 0.644416
upperback 0.163135 -1.23959 3.04292
thorax -5.33597 -0.589093 2.99814
lowerneck -16.103 -2.74878 -1.74828
upperneck 23.8543 -3.13761 -1.02891
head 10.2969 -1.72966 -0.494868
rclavicle -4.32357e-015 1.23246e-014
rhumerus -36.2577 -26.5304 -70.0427
rradius 19.2202
rwrist 11.6401
rhand -15.6409 20.7202
rfingers 7.12502
rthumb 10.5466 -8.99518
lclavicle -4.32357e-015 1.23246e-014
lhumerus -28.1578 -2.06581 84.9065
lradius 31.0453
lwrist 9.75143
lhand -25.75 32.1782
lfingers 7.12502
lthumb 0.787161 62.1565
rfemur -21.6949 3.65291 26.8857
rtibia 27.6887
rfoot -5.05208 -3.81013
rtoes 11.2841
lfemur 2.24207 -2.51113 -18.9962
ltibia 51.202
lfoot 16.0709 -16.1261
ltoes -10.1803
67
root 0.298733 18.1088 -15.5108 -1.79062 0.254446 -3.33858
lowerback 10.0623 -1.09864 0.963734
upperback 0.106177 -1.16854 3.20414
thorax -5.49197 -0.558837 2.98346
lowerneck -15.7909 -2.6753 -1.80518
upperneck 23.7838 -3.02828 -1.02153
head 10.2126 -1.68419 -0.462048
rclavicle -2.26615e-014 2.06736e-014
rhumerus -35.9021 -25.6849 -70.3469
rradius 19.5069
rwrist 11.1347
rhand -15.6324 20.6643
rfingers 7.12502
rthumb 10.5548 -9.0507
lclavicle -2.26615e-014 2.06736e-014
lhumerus -28.4847 -1.85741 85.0388
lradius 30.3771
lwrist 9.51969
lhand -25.2437 32.1366
lfingers 7.12502
lthumb 1.27624 62.1126
rfemur -20.8294 3.76264 27.5242
rtibia 27.5332
rfoot -5.4332 -3.81601
rtoes 11.5008
lfemur 0.885125 -2.16062 -18.3003
ltibia 53.5609
lfoot 17.6007 -16.5539
ltoes -8.75911
68
root 0.282651 18.12 -15.3371 -1.84824 0.20879 -3.85455
lowerback 10.1837 -1.08488 1.41418
upperback 0.109633 -1.08495 3.35156
thorax -5.56638 -0.52721 2.87562
lowerneck -15.6878 -2.74337 -1.85058
upperneck 23.5869 -3.12644 -0.973854
head 10.124 -1.72745 -0.446666
rclavicle -1.09332e-015 -2.42517e-014
rhumerus -35.4368 -25.1655 -70.6943
rradius 19.8618
rwrist 10.8213
rhand -15.8322 20.2238
rfingers 7.12502
rthumb 10.362 -9.50085
lclavicle -1.09332e-015 -2.42517e-014
lhumerus -28.7965 -1.88957 85.2081
lradius 29.8827
lwrist 9.28825
lhand -26.5719 28.2846
lfingers 7.12502
lthumb -0.00657578 58.2643
rfemur -20.1341 3.83449 28.2235
rtibia 27.5268
rfoot -5.86607 -3.89109
rtoes 10.1813
lfemur -0.583295 -1.9309 -17.5041
ltibia 55.7605
lfoot 17.5612 -15.9256
ltoes -4.88989
69
root 0.271889 18.1313 -15.1684 -1.87388 0.248253 -4.0558
lowerback 10.3324 -1.04732 1.67367
upperback 0.0876059 -0.996312 3.37088
thorax -5.68101 -0.489682 2.74112
lowerneck -15.6729 -2.83203 -1.93524
upperneck 23.4861 -3.25399 -0.873822
head 10.089 -1.78158 -0.412847
rclavicle -1.2101e-014 3.18055e-014
rhumerus -35.01 -24.1672 -71.2503
rradius 20.3419
rwrist 9.60673
rhand -15.1088 21.2302
rfingers 7.12502
rthumb 11.0598 -8.45845
lclavicle -1.2101e-014 3.18055e-014
lhumerus -29.2081 -2.05134 85.429
lradius 29.7423
lwrist 8.90533
lhand -27.0368 27.3564
lfingers 7.12502
lthumb -0.455647 57.3357
rfemur -19.4915 3.8408 28.5479
rtibia 27.5821
rfoot -6.35258 -3.9719
rtoes 11.9893
lfemur -2.14423 -1.77196 -17.1246
ltibia 57.8063
lfoot 16.6971 -14.9671
ltoes -0.481526
